<svg id="Camada_1" data-name="Camada 1" xmlns="http://www.w3.org/2000/svg" viewBox="0 0 77.23 110.99"><defs><style>.cls-1{fill:#cbcbcb;}.cls-2{fill:#f0e745;}.cls-3{fill:#fff;stroke:#fff;stroke-miterlimit:10;}</style></defs><title>iconeWeApp</title><path class="cls-1" d="M375.53,107.23H413c3.22,1.27,4.23,3.73,4.15,7-.14,5.54,0,11.08,0,16.62v1.91c.9.08,1.59.12,2.28.21a4.09,4.09,0,0,1,3.76,4.09c.09,2.38-1.18,4.34-3.45,4.5a72.22,72.22,0,0,1-10.46,0c-2.35-.18-3.47-2.16-3.29-4.76a4,4,0,0,1,3.82-3.81c1.15-.1,2.3-.12,3.47-.17V115.74H375.15V125c1.27-.69,2.32-1.3,3.4-1.84a59.19,59.19,0,0,1,7.21-3.46,3.51,3.51,0,0,1,4.73,4,8,8,0,0,1-2.48,4.38c-3.68,3.12-7.58,6-11.49,8.82a3,3,0,0,0-1.54,2.8c.06,11.49,0,23,0,34.46v1.9h38.22v-2.83a28.16,28.16,0,0,1-3.6,0c-2.52-.34-3.8-2-3.72-4.64a3.89,3.89,0,0,1,3.92-4.06c3.08-.14,6.18-.14,9.26,0a4,4,0,0,1,4,4.17,4.19,4.19,0,0,1-3.88,4.55c-.67.1-1.35.12-2.16.19,0,1.91-.1,3.72,0,5.51.21,3.32-.92,5.77-4.13,7H375.53c-3.12-1.2-4.45-3.48-4.22-6.8.1-1.48,0-3,0-4.6-2,0-3.73,0-5.47,0-8.81-.11-15.36-4.68-17.69-12.81a26.91,26.91,0,0,1,1.56-19.25,14.28,14.28,0,0,1,6-6.59c4.82-2.7,9.65-5.39,14.42-8.17a2.59,2.59,0,0,0,1.09-1.86c.1-4,.16-7.93,0-11.89C371.17,110.72,372.4,108.44,375.53,107.23Zm18.65,3.83c-1.69,0-3.37,0-5.06,0-.37,0-.74.36-1.1.56.38.26.76.74,1.14.74q5.06.09,10.11,0c.37,0,.72-.51,1.08-.78-.37-.18-.74-.51-1.12-.52C397.55,111,395.86,111.06,394.18,111.06Z" transform="translate(-347.07 -75.01)"/><path class="cls-1" d="M394.18,111.06c1.69,0,3.37,0,5.06,0,.38,0,.75.34,1.12.52-.36.27-.72.77-1.08.78q-5.06.09-10.11,0c-.39,0-.76-.48-1.14-.74.37-.19.73-.54,1.1-.56C390.81,111,392.49,111.06,394.18,111.06Z" transform="translate(-347.07 -75.01)"/><path class="cls-1" d="M414.41,152.26c-1.46,0-2.92.07-4.37,0a4,4,0,0,1-4.12-4.26c0-2.66,1.4-4.37,4.06-4.48,3-.13,6.06-.12,9.09,0a4.05,4.05,0,0,1,4.07,4.49,4.12,4.12,0,0,1-4.18,4.24C417.44,152.33,415.92,152.26,414.41,152.26Z" transform="translate(-347.07 -75.01)"/><path class="cls-1" d="M414.55,154c1.63,0,3.27-.12,4.89,0a4,4,0,0,1,3.69,4.13c.06,2.31-1.19,4.24-3.36,4.38a79.59,79.59,0,0,1-10.46,0c-2.31-.15-3.48-2-3.4-4.49a4,4,0,0,1,3.74-4.09,4.18,4.18,0,0,1,.52-.05h4.37Z" transform="translate(-347.07 -75.01)"/><path class="cls-2" d="M411.91,95.94a17.2,17.2,0,1,1-14.08-19.75A17.22,17.22,0,0,1,411.91,95.94Zm-8.73-8.2a6.63,6.63,0,0,0-4.34-5.84,1.09,1.09,0,0,1-.5-.85,10.81,10.81,0,0,1,.27-1.78L396,78.83a10.1,10.1,0,0,0-.22,1.36c0,.84-.38,1.07-1.24,1.13a6.4,6.4,0,0,0-5.89,6.27,6.27,6.27,0,0,0,3.3,5.88c1.47.9,2.95,1.79,4.4,2.72a2,2,0,0,1,.86,2.32,2.38,2.38,0,0,1-1.88,1.93,3.78,3.78,0,0,1-4.66-3.24c0-.29-.09-.57-.13-.88l-4.19.39c.17,3.73,1.93,6.17,5.5,7.24l-.52,3.1,2.59.43.52-3.1,1.25-.06a6.26,6.26,0,0,0,5.67-3.52c1.09-2.24,1.38-4.61-.18-6.76a11.58,11.58,0,0,0-2.69-2.42c-1.26-.9-2.64-1.64-3.95-2.48a1.89,1.89,0,0,1-1-1.85A2.32,2.32,0,0,1,395.35,85a2.86,2.86,0,0,1,3.12,1.38,21.09,21.09,0,0,1,.91,2.22Z" transform="translate(-347.07 -75.01)"/><path class="cls-1" d="M419.93,81.3c.13,0,.27,0,.32.11a32.57,32.57,0,0,1,2.23,3,12.73,12.73,0,0,1,1.79,7.4,17,17,0,0,1-2.15,7.28,24.4,24.4,0,0,1-1.74,2.58,1.09,1.09,0,0,1-.58.36.54.54,0,0,1-.45-.17c-.06-.06,0-.31.09-.43a6.14,6.14,0,0,1,.4-.47,17.36,17.36,0,0,0,3.45-8.21,12.64,12.64,0,0,0-2.78-9.91A2.12,2.12,0,0,1,419.93,81.3Z" transform="translate(-347.07 -75.01)"/><path class="cls-1" d="M417.51,103.57a8.21,8.21,0,0,0,3.15-.51c.9-.25,1.79-.55,2.69-.81.12,0,.28.05.42.08-.06.13-.08.34-.17.38a13.37,13.37,0,0,1-6.4,1.63c-.62,0-.76-.24-.5-.82q1-2.18,2-4.35a3.76,3.76,0,0,1,.44-.68,1.61,1.61,0,0,1,.32-.25c0,.17.13.36.09.5a13.92,13.92,0,0,1-.53,1.48C418.51,101.32,418,102.42,417.51,103.57Z" transform="translate(-347.07 -75.01)"/><path class="cls-1" d="M368.53,97.09c-.12-.08-.25-.11-.28-.19a32.57,32.57,0,0,1-1.43-3.43,12.73,12.73,0,0,1,.09-7.61,17,17,0,0,1,3.87-6.53,24.4,24.4,0,0,1,2.32-2.08,1.09,1.09,0,0,1,.65-.2.54.54,0,0,1,.39.28c0,.07-.09.3-.19.4a6.14,6.14,0,0,1-.5.36,17.36,17.36,0,0,0-5.36,7.11,12.64,12.64,0,0,0,.26,10.28A2.12,2.12,0,0,1,368.53,97.09Z" transform="translate(-347.07 -75.01)"/><path class="cls-1" d="M376.35,76.09a8.21,8.21,0,0,0-3.18-.28c-.94,0-1.87.1-2.81.13-.12,0-.26-.12-.38-.18.09-.11.16-.31.26-.33a13.37,13.37,0,0,1,6.61,0c.59.18.68.42.29.92q-1.48,1.87-3,3.73a3.76,3.76,0,0,1-.6.55,1.61,1.61,0,0,1-.37.17c0-.17,0-.39,0-.51a13.92,13.92,0,0,1,.88-1.3C374.83,78,375.58,77.08,376.35,76.09Z" transform="translate(-347.07 -75.01)"/><path class="cls-3" d="M400.87,110.92a12.64,12.64,0,0,1-10.24,1,16.73,16.73,0,0,1-4.58-2.3l-.38.84a16.4,16.4,0,0,0,5.72,2.58,12.73,12.73,0,0,0,7.6-.48,32.58,32.58,0,0,0,3.32-1.68c.08,0,.1-.17.17-.3A2.12,2.12,0,0,0,400.87,110.92Z" transform="translate(-347.07 -75.01)"/><rect class="cls-2" x="35.8" y="87.75" width="22.18" height="3.79"/><rect class="cls-2" x="34.07" y="82.55" width="22.18" height="3.79"/><rect class="cls-2" x="35.8" y="77.36" width="22.18" height="3.79"/><rect class="cls-2" x="34.87" y="71.51" width="22.18" height="3.79"/></svg>