<svg id="Camada_1" data-name="Camada 1" xmlns="http://www.w3.org/2000/svg" viewBox="0 0 647.87 164.97"><defs><style>.cls-1{fill:#cbcbcb;}.cls-2{fill:#efe52c;}.cls-3{fill:#f0e745;}.cls-4{fill:#fff;stroke:#fff;stroke-miterlimit:10;}</style></defs><title>Logo WeApp</title><path class="cls-1" d="M203.84,81.76l-30.9,116.93H143.74l-19.41-75a62.48,62.48,0,0,1-1.88-13.13h-.33A79.79,79.79,0,0,1,120,123.67l-19.9,75H69.7L39,81.76H67.74l16.47,77.87A93.07,93.07,0,0,1,85.76,173h.49a64.68,64.68,0,0,1,2.36-13.7l21.2-77.55H138l19.16,78.53a96.35,96.35,0,0,1,1.88,12.56h.33a84,84,0,0,1,1.71-13l16.15-78Z" transform="translate(-38.96 -33.72)"/><path class="cls-1" d="M281.8,198.69H211.68V81.76h67.44v21.45H238v26h38.24v21.36H238v26.75H281.8Z" transform="translate(-38.96 -33.72)"/><path class="cls-2" d="M407.75,198.69H379l-8.32-26H329.14l-8.24,26H292.37L334.93,81.76h31.23Zm-43.05-46.23-12.56-39.3a51.13,51.13,0,0,1-2-10.52h-.65a44.65,44.65,0,0,1-2,10.19l-12.72,39.63Z" transform="translate(-38.96 -33.72)"/><path class="cls-2" d="M445.68,158.41v40.28H419.34V81.76h41.26q44.2,0,44.2,37.27,0,17.61-12.68,28.5t-33.88,10.89Zm0-56.43v36.45H456q21,0,21-18.43,0-18-21-18Z" transform="translate(-38.96 -33.72)"/><path class="cls-2" d="M542.26,158.41v40.28H515.93V81.76h41.26q44.2,0,44.2,37.27,0,17.61-12.68,28.5t-33.88,10.89Zm0-56.43v36.45h10.36q21,0,21-18.43,0-18-21-18Z" transform="translate(-38.96 -33.72)"/><path class="cls-1" d="M638.06,65.95h37.45c3.22,1.27,4.23,3.73,4.15,7-.14,5.54,0,11.08,0,16.62v1.91c.9.08,1.59.12,2.28.21a4.09,4.09,0,0,1,3.76,4.09c.09,2.38-1.18,4.34-3.45,4.5a72.22,72.22,0,0,1-10.46,0c-2.35-.18-3.47-2.16-3.29-4.76a4,4,0,0,1,3.82-3.81c1.15-.1,2.3-.12,3.47-.17V74.45H637.68v9.27c1.27-.69,2.32-1.3,3.4-1.84a59.19,59.19,0,0,1,7.21-3.46,3.51,3.51,0,0,1,4.73,4,8,8,0,0,1-2.48,4.38c-3.68,3.12-7.58,6-11.49,8.82a3,3,0,0,0-1.54,2.8c.06,11.49,0,23,0,34.46v1.9h38.22V132a28.16,28.16,0,0,1-3.6,0c-2.52-.34-3.8-2-3.72-4.64a3.89,3.89,0,0,1,3.92-4.06c3.08-.14,6.18-.14,9.26,0a4,4,0,0,1,4,4.17,4.19,4.19,0,0,1-3.88,4.55c-.67.1-1.35.12-2.16.19,0,1.91-.1,3.72,0,5.51.21,3.32-.92,5.77-4.13,7H638.06c-3.12-1.2-4.45-3.48-4.22-6.8.1-1.48,0-3,0-4.6-2,0-3.73,0-5.47,0-8.81-.11-15.36-4.68-17.69-12.81a26.91,26.91,0,0,1,1.56-19.25,14.28,14.28,0,0,1,6-6.59c4.82-2.7,9.65-5.39,14.42-8.17a2.59,2.59,0,0,0,1.09-1.86c.1-4,.16-7.93,0-11.89C633.7,69.43,634.94,67.15,638.06,65.95Zm18.65,3.83c-1.69,0-3.37,0-5.06,0-.37,0-.74.36-1.1.56.38.26.76.74,1.14.74q5.06.09,10.11,0c.37,0,.72-.51,1.08-.78-.37-.18-.74-.51-1.12-.52C660.08,69.74,658.4,69.78,656.71,69.78Z" transform="translate(-38.96 -33.72)"/><path class="cls-1" d="M656.71,69.78c1.69,0,3.37,0,5.06,0,.38,0,.75.34,1.12.52-.36.27-.72.77-1.08.78q-5.06.09-10.11,0c-.39,0-.76-.48-1.14-.74.37-.19.73-.54,1.1-.56C653.34,69.74,655,69.78,656.71,69.78Z" transform="translate(-38.96 -33.72)"/><path class="cls-1" d="M676.94,111c-1.46,0-2.92.07-4.37,0a4,4,0,0,1-4.12-4.26c0-2.66,1.4-4.37,4.06-4.48,3-.13,6.06-.12,9.09,0a4.05,4.05,0,0,1,4.07,4.49,4.12,4.12,0,0,1-4.18,4.24C680,111,678.45,111,676.94,111Z" transform="translate(-38.96 -33.72)"/><path class="cls-1" d="M677.08,112.75c1.63,0,3.27-.12,4.89,0a4,4,0,0,1,3.69,4.13c.06,2.31-1.19,4.24-3.36,4.38a79.59,79.59,0,0,1-10.46,0c-2.31-.15-3.48-2-3.4-4.49a4,4,0,0,1,3.74-4.09,4.18,4.18,0,0,1,.52-.05h4.37Z" transform="translate(-38.96 -33.72)"/><path class="cls-3" d="M674.45,54.66A17.2,17.2,0,1,1,660.37,34.9,17.22,17.22,0,0,1,674.45,54.66Zm-8.73-8.2a6.63,6.63,0,0,0-4.34-5.84,1.09,1.09,0,0,1-.5-.85,10.81,10.81,0,0,1,.27-1.78l-2.64-.44a10.1,10.1,0,0,0-.22,1.36c0,.84-.38,1.07-1.24,1.13a6.4,6.4,0,0,0-5.89,6.27,6.27,6.27,0,0,0,3.3,5.88c1.47.9,2.95,1.79,4.4,2.72a2,2,0,0,1,.86,2.32,2.38,2.38,0,0,1-1.88,1.93,3.78,3.78,0,0,1-4.66-3.24c0-.29-.09-.57-.13-.88l-4.19.39c.17,3.73,1.93,6.17,5.5,7.24l-.52,3.1,2.59.43.52-3.1,1.25-.06a6.26,6.26,0,0,0,5.67-3.52c1.09-2.24,1.38-4.61-.18-6.76A11.58,11.58,0,0,0,661,50.33c-1.26-.9-2.64-1.64-3.95-2.48A1.89,1.89,0,0,1,656,46a2.32,2.32,0,0,1,1.83-2.27A2.86,2.86,0,0,1,661,45.11a21.09,21.09,0,0,1,.91,2.22Z" transform="translate(-38.96 -33.72)"/><path class="cls-1" d="M682.46,40c.13,0,.27,0,.32.11a32.57,32.57,0,0,1,2.23,3,12.73,12.73,0,0,1,1.79,7.4,17,17,0,0,1-2.15,7.28,24.4,24.4,0,0,1-1.74,2.58,1.09,1.09,0,0,1-.58.36.54.54,0,0,1-.45-.17c-.06-.06,0-.31.09-.43a6.14,6.14,0,0,1,.4-.47,17.36,17.36,0,0,0,3.45-8.21,12.64,12.64,0,0,0-2.78-9.91A2.12,2.12,0,0,1,682.46,40Z" transform="translate(-38.96 -33.72)"/><path class="cls-1" d="M680,62.29a8.21,8.21,0,0,0,3.15-.51c.9-.25,1.79-.55,2.69-.81.12,0,.28.05.42.08-.06.13-.08.34-.17.38a13.37,13.37,0,0,1-6.4,1.63c-.62,0-.76-.24-.5-.82q1-2.18,2-4.35a3.76,3.76,0,0,1,.44-.68A1.61,1.61,0,0,1,682,57c0,.17.13.36.09.5a13.92,13.92,0,0,1-.53,1.48C681,60,680.54,61.13,680,62.29Z" transform="translate(-38.96 -33.72)"/><path class="cls-1" d="M631.06,55.8c-.12-.08-.25-.11-.28-.19a32.57,32.57,0,0,1-1.43-3.43,12.73,12.73,0,0,1,.09-7.61A17,17,0,0,1,633.31,38,24.4,24.4,0,0,1,635.62,36a1.09,1.09,0,0,1,.65-.2.54.54,0,0,1,.39.28c0,.07-.09.3-.19.4a6.14,6.14,0,0,1-.5.36,17.36,17.36,0,0,0-5.36,7.11,12.64,12.64,0,0,0,.26,10.28A2.12,2.12,0,0,1,631.06,55.8Z" transform="translate(-38.96 -33.72)"/><path class="cls-1" d="M638.89,34.81a8.21,8.21,0,0,0-3.18-.28c-.94,0-1.87.1-2.81.13-.12,0-.26-.12-.38-.18.09-.11.16-.31.26-.33a13.37,13.37,0,0,1,6.61,0c.59.18.68.42.29.92q-1.48,1.87-3,3.73a3.76,3.76,0,0,1-.6.55,1.61,1.61,0,0,1-.37.17c0-.17,0-.39,0-.51a13.92,13.92,0,0,1,.88-1.3C637.36,36.74,638.11,35.8,638.89,34.81Z" transform="translate(-38.96 -33.72)"/><path class="cls-4" d="M663.4,69.64a12.64,12.64,0,0,1-10.24,1,16.73,16.73,0,0,1-4.58-2.3l-.38.84a16.4,16.4,0,0,0,5.72,2.58,12.73,12.73,0,0,0,7.6-.48,32.58,32.58,0,0,0,3.32-1.68c.08,0,.1-.17.17-.3A2.12,2.12,0,0,0,663.4,69.64Z" transform="translate(-38.96 -33.72)"/><rect class="cls-3" x="606.44" y="87.75" width="22.18" height="3.79"/><rect class="cls-3" x="604.71" y="82.55" width="22.18" height="3.79"/><rect class="cls-3" x="606.44" y="77.36" width="22.18" height="3.79"/><rect class="cls-3" x="605.51" y="71.51" width="22.18" height="3.79"/></svg>